<mxfile host="app.diagrams.net" modified="2024-05-02T20:08:45.750Z" agent="Mozilla/5.0 (Windows NT 10.0; Win64; x64) AppleWebKit/537.36 (KHTML, like Gecko) Chrome/124.0.0.0 Safari/537.36 Edg/124.0.0.0" etag="OD_bYSwoQnGSYnX86Rjs" version="24.3.1" type="device">
  <diagram name="Page-1" id="wbEUUzapNUjY24r4nviO">
    <mxGraphModel dx="2460" dy="1497" grid="1" gridSize="10" guides="1" tooltips="1" connect="1" arrows="1" fold="1" page="1" pageScale="1" pageWidth="850" pageHeight="1100" math="0" shadow="0">
      <root>
        <mxCell id="0" />
        <mxCell id="1" parent="0" />
        <mxCell id="_AU7bAO6rj__cAFepLXE-5" value="&lt;p style=&quot;margin:0px;margin-top:4px;text-align:center;&quot;&gt;&lt;b&gt;Person&lt;/b&gt;&lt;/p&gt;&lt;hr size=&quot;1&quot; style=&quot;border-style:solid;&quot;&gt;&lt;p style=&quot;margin:0px;margin-left:4px;&quot;&gt;+ Int: life, 100&lt;/p&gt;&lt;p style=&quot;margin:0px;margin-left:4px;&quot;&gt;+Int: tired&amp;nbsp;&lt;/p&gt;&lt;p style=&quot;margin:0px;margin-left:4px;&quot;&gt;+float: speed,10&lt;/p&gt;&lt;p style=&quot;margin:0px;margin-left:4px;&quot;&gt;+mesh:skin&lt;/p&gt;&lt;p style=&quot;margin:0px;margin-left:4px;&quot;&gt;&lt;br&gt;&lt;/p&gt;&lt;hr size=&quot;1&quot; style=&quot;border-style:solid;&quot;&gt;&lt;p style=&quot;margin:0px;margin-left:4px;&quot;&gt;+ sleep(): tired = 15&lt;/p&gt;&lt;p style=&quot;margin:0px;margin-left:4px;&quot;&gt;+walk(): speed&lt;/p&gt;&lt;p style=&quot;margin:0px;margin-left:4px;&quot;&gt;+dead();&lt;/p&gt;" style="verticalAlign=top;align=left;overflow=fill;html=1;whiteSpace=wrap;" parent="1" vertex="1">
          <mxGeometry x="265" y="80" width="160" height="160" as="geometry" />
        </mxCell>
        <mxCell id="_AU7bAO6rj__cAFepLXE-6" value="&lt;p style=&quot;margin:0px;margin-top:4px;text-align:center;&quot;&gt;&lt;b&gt;Human&lt;/b&gt;&lt;/p&gt;&lt;hr size=&quot;1&quot; style=&quot;border-style:solid;&quot;&gt;&lt;p style=&quot;margin:0px;margin-left:4px;&quot;&gt;+ string: name&lt;/p&gt;&lt;p style=&quot;margin:0px;margin-left:4px;&quot;&gt;+int: age&lt;/p&gt;&lt;p style=&quot;margin:0px;margin-left:4px;&quot;&gt;+float: height&lt;/p&gt;&lt;p style=&quot;margin:0px;margin-left:4px;&quot;&gt;+bool: dead or alive&lt;/p&gt;&lt;hr size=&quot;1&quot; style=&quot;border-style:solid;&quot;&gt;&lt;p style=&quot;margin:0px;margin-left:4px;&quot;&gt;+ walk():&lt;/p&gt;&lt;p style=&quot;margin:0px;margin-left:4px;&quot;&gt;+eat():&lt;/p&gt;&lt;p style=&quot;margin:0px;margin-left:4px;&quot;&gt;+sleep():&lt;/p&gt;" style="verticalAlign=top;align=left;overflow=fill;html=1;whiteSpace=wrap;" parent="1" vertex="1">
          <mxGeometry x="65" y="70" width="160" height="170" as="geometry" />
        </mxCell>
        <mxCell id="_AU7bAO6rj__cAFepLXE-21" style="edgeStyle=orthogonalEdgeStyle;rounded=0;orthogonalLoop=1;jettySize=auto;html=1;exitX=0.5;exitY=1;exitDx=0;exitDy=0;entryX=0.5;entryY=0;entryDx=0;entryDy=0;" parent="1" source="_AU7bAO6rj__cAFepLXE-7" target="_AU7bAO6rj__cAFepLXE-16" edge="1">
          <mxGeometry relative="1" as="geometry" />
        </mxCell>
        <mxCell id="_AU7bAO6rj__cAFepLXE-7" value="notSleep()" style="ellipse;whiteSpace=wrap;html=1;" parent="1" vertex="1">
          <mxGeometry x="725" y="40" width="200" height="80" as="geometry" />
        </mxCell>
        <mxCell id="_AU7bAO6rj__cAFepLXE-13" style="edgeStyle=orthogonalEdgeStyle;rounded=0;orthogonalLoop=1;jettySize=auto;html=1;exitX=0.5;exitY=1;exitDx=0;exitDy=0;entryX=0.5;entryY=0;entryDx=0;entryDy=0;" parent="1" source="_AU7bAO6rj__cAFepLXE-10" target="_AU7bAO6rj__cAFepLXE-12" edge="1">
          <mxGeometry relative="1" as="geometry" />
        </mxCell>
        <mxCell id="_AU7bAO6rj__cAFepLXE-10" value="life = life - 10" style="rounded=0;whiteSpace=wrap;html=1;" parent="1" vertex="1">
          <mxGeometry x="600" y="410" width="120" height="60" as="geometry" />
        </mxCell>
        <mxCell id="_AU7bAO6rj__cAFepLXE-57" style="edgeStyle=orthogonalEdgeStyle;rounded=0;orthogonalLoop=1;jettySize=auto;html=1;entryX=0.5;entryY=0;entryDx=0;entryDy=0;" parent="1" source="_AU7bAO6rj__cAFepLXE-12" target="_AU7bAO6rj__cAFepLXE-56" edge="1">
          <mxGeometry relative="1" as="geometry" />
        </mxCell>
        <mxCell id="_AU7bAO6rj__cAFepLXE-12" value="life = 90" style="shape=document;whiteSpace=wrap;html=1;boundedLbl=1;" parent="1" vertex="1">
          <mxGeometry x="600" y="550" width="120" height="70" as="geometry" />
        </mxCell>
        <mxCell id="_AU7bAO6rj__cAFepLXE-14" value="end" style="ellipse;whiteSpace=wrap;html=1;" parent="1" vertex="1">
          <mxGeometry x="710" y="860" width="120" height="80" as="geometry" />
        </mxCell>
        <mxCell id="_AU7bAO6rj__cAFepLXE-19" style="edgeStyle=orthogonalEdgeStyle;rounded=0;orthogonalLoop=1;jettySize=auto;html=1;exitX=0;exitY=0.5;exitDx=0;exitDy=0;entryX=0.5;entryY=0;entryDx=0;entryDy=0;" parent="1" source="_AU7bAO6rj__cAFepLXE-16" target="_AU7bAO6rj__cAFepLXE-28" edge="1">
          <mxGeometry relative="1" as="geometry">
            <mxPoint x="660" y="270" as="targetPoint" />
          </mxGeometry>
        </mxCell>
        <mxCell id="_AU7bAO6rj__cAFepLXE-16" value="goSleep()" style="rhombus;whiteSpace=wrap;html=1;" parent="1" vertex="1">
          <mxGeometry x="740" y="170" width="170" height="80" as="geometry" />
        </mxCell>
        <mxCell id="_AU7bAO6rj__cAFepLXE-20" style="edgeStyle=orthogonalEdgeStyle;rounded=0;orthogonalLoop=1;jettySize=auto;html=1;exitX=1;exitY=0.5;exitDx=0;exitDy=0;entryX=0.5;entryY=0;entryDx=0;entryDy=0;" parent="1" source="_AU7bAO6rj__cAFepLXE-16" target="_AU7bAO6rj__cAFepLXE-29" edge="1">
          <mxGeometry relative="1" as="geometry">
            <mxPoint x="1026" y="269" as="targetPoint" />
          </mxGeometry>
        </mxCell>
        <mxCell id="_AU7bAO6rj__cAFepLXE-51" style="edgeStyle=orthogonalEdgeStyle;rounded=0;orthogonalLoop=1;jettySize=auto;html=1;entryX=0;entryY=0.5;entryDx=0;entryDy=0;" parent="1" source="_AU7bAO6rj__cAFepLXE-22" target="_AU7bAO6rj__cAFepLXE-24" edge="1">
          <mxGeometry relative="1" as="geometry">
            <Array as="points">
              <mxPoint x="890" y="775" />
            </Array>
          </mxGeometry>
        </mxCell>
        <mxCell id="_AU7bAO6rj__cAFepLXE-22" value="life = life +10" style="rounded=0;whiteSpace=wrap;html=1;" parent="1" vertex="1">
          <mxGeometry x="840" y="630" width="120" height="60" as="geometry" />
        </mxCell>
        <mxCell id="_AU7bAO6rj__cAFepLXE-53" style="edgeStyle=orthogonalEdgeStyle;rounded=0;orthogonalLoop=1;jettySize=auto;html=1;entryX=1;entryY=0.5;entryDx=0;entryDy=0;" parent="1" source="_AU7bAO6rj__cAFepLXE-24" target="_AU7bAO6rj__cAFepLXE-14" edge="1">
          <mxGeometry relative="1" as="geometry">
            <Array as="points">
              <mxPoint x="1030" y="900" />
            </Array>
          </mxGeometry>
        </mxCell>
        <mxCell id="_AU7bAO6rj__cAFepLXE-24" value="&amp;nbsp;life = 100" style="shape=document;whiteSpace=wrap;html=1;boundedLbl=1;" parent="1" vertex="1">
          <mxGeometry x="970" y="740" width="120" height="70" as="geometry" />
        </mxCell>
        <mxCell id="_AU7bAO6rj__cAFepLXE-31" style="edgeStyle=orthogonalEdgeStyle;rounded=0;orthogonalLoop=1;jettySize=auto;html=1;entryX=0.5;entryY=0;entryDx=0;entryDy=0;" parent="1" source="_AU7bAO6rj__cAFepLXE-28" target="_AU7bAO6rj__cAFepLXE-10" edge="1">
          <mxGeometry relative="1" as="geometry" />
        </mxCell>
        <mxCell id="_AU7bAO6rj__cAFepLXE-28" value="not sleep()" style="shape=document;whiteSpace=wrap;html=1;boundedLbl=1;" parent="1" vertex="1">
          <mxGeometry x="600" y="270" width="120" height="80" as="geometry" />
        </mxCell>
        <mxCell id="_AU7bAO6rj__cAFepLXE-29" value="sleep()" style="shape=document;whiteSpace=wrap;html=1;boundedLbl=1;" parent="1" vertex="1">
          <mxGeometry x="990" y="260" width="120" height="80" as="geometry" />
        </mxCell>
        <mxCell id="_AU7bAO6rj__cAFepLXE-39" value="true" style="text;html=1;align=center;verticalAlign=middle;whiteSpace=wrap;rounded=0;" parent="1" vertex="1">
          <mxGeometry x="925" y="180" width="60" height="30" as="geometry" />
        </mxCell>
        <mxCell id="_AU7bAO6rj__cAFepLXE-40" value="false" style="text;html=1;align=center;verticalAlign=middle;whiteSpace=wrap;rounded=0;" parent="1" vertex="1">
          <mxGeometry x="680" y="180" width="60" height="30" as="geometry" />
        </mxCell>
        <mxCell id="_AU7bAO6rj__cAFepLXE-42" value="" style="edgeStyle=orthogonalEdgeStyle;rounded=0;orthogonalLoop=1;jettySize=auto;html=1;entryX=0.5;entryY=0;entryDx=0;entryDy=0;" parent="1" source="_AU7bAO6rj__cAFepLXE-29" target="_AU7bAO6rj__cAFepLXE-41" edge="1">
          <mxGeometry relative="1" as="geometry">
            <mxPoint x="1010" y="360" as="sourcePoint" />
            <mxPoint x="1010" y="530" as="targetPoint" />
          </mxGeometry>
        </mxCell>
        <mxCell id="_AU7bAO6rj__cAFepLXE-46" style="edgeStyle=orthogonalEdgeStyle;rounded=0;orthogonalLoop=1;jettySize=auto;html=1;exitX=1;exitY=0.5;exitDx=0;exitDy=0;" parent="1" source="_AU7bAO6rj__cAFepLXE-41" target="_AU7bAO6rj__cAFepLXE-44" edge="1">
          <mxGeometry relative="1" as="geometry" />
        </mxCell>
        <mxCell id="_AU7bAO6rj__cAFepLXE-52" style="edgeStyle=orthogonalEdgeStyle;rounded=0;orthogonalLoop=1;jettySize=auto;html=1;entryX=0.5;entryY=0;entryDx=0;entryDy=0;" parent="1" source="_AU7bAO6rj__cAFepLXE-41" target="_AU7bAO6rj__cAFepLXE-43" edge="1">
          <mxGeometry relative="1" as="geometry">
            <Array as="points">
              <mxPoint x="900" y="440" />
            </Array>
          </mxGeometry>
        </mxCell>
        <mxCell id="_AU7bAO6rj__cAFepLXE-41" value="isTired()" style="rhombus;whiteSpace=wrap;html=1;" parent="1" vertex="1">
          <mxGeometry x="960" y="400" width="180" height="80" as="geometry" />
        </mxCell>
        <mxCell id="_AU7bAO6rj__cAFepLXE-49" style="edgeStyle=orthogonalEdgeStyle;rounded=0;orthogonalLoop=1;jettySize=auto;html=1;" parent="1" source="_AU7bAO6rj__cAFepLXE-43" target="_AU7bAO6rj__cAFepLXE-22" edge="1">
          <mxGeometry relative="1" as="geometry" />
        </mxCell>
        <mxCell id="_AU7bAO6rj__cAFepLXE-43" value="tired()" style="shape=document;whiteSpace=wrap;html=1;boundedLbl=1;" parent="1" vertex="1">
          <mxGeometry x="840" y="490" width="120" height="80" as="geometry" />
        </mxCell>
        <mxCell id="_AU7bAO6rj__cAFepLXE-50" style="edgeStyle=orthogonalEdgeStyle;rounded=0;orthogonalLoop=1;jettySize=auto;html=1;entryX=1;entryY=0.75;entryDx=0;entryDy=0;" parent="1" source="_AU7bAO6rj__cAFepLXE-44" target="_AU7bAO6rj__cAFepLXE-24" edge="1">
          <mxGeometry relative="1" as="geometry">
            <Array as="points">
              <mxPoint x="1200" y="780" />
              <mxPoint x="1090" y="780" />
            </Array>
          </mxGeometry>
        </mxCell>
        <mxCell id="_AU7bAO6rj__cAFepLXE-44" value="noTired()" style="shape=document;whiteSpace=wrap;html=1;boundedLbl=1;" parent="1" vertex="1">
          <mxGeometry x="1130" y="490" width="120" height="80" as="geometry" />
        </mxCell>
        <mxCell id="_AU7bAO6rj__cAFepLXE-54" value="true" style="text;html=1;align=center;verticalAlign=middle;whiteSpace=wrap;rounded=0;" parent="1" vertex="1">
          <mxGeometry x="900" y="410" width="60" height="30" as="geometry" />
        </mxCell>
        <mxCell id="_AU7bAO6rj__cAFepLXE-55" value="false" style="text;html=1;align=center;verticalAlign=middle;whiteSpace=wrap;rounded=0;" parent="1" vertex="1">
          <mxGeometry x="1130" y="410" width="60" height="30" as="geometry" />
        </mxCell>
        <mxCell id="_AU7bAO6rj__cAFepLXE-58" style="edgeStyle=orthogonalEdgeStyle;rounded=0;orthogonalLoop=1;jettySize=auto;html=1;entryX=0;entryY=0.5;entryDx=0;entryDy=0;" parent="1" source="_AU7bAO6rj__cAFepLXE-56" target="_AU7bAO6rj__cAFepLXE-14" edge="1">
          <mxGeometry relative="1" as="geometry" />
        </mxCell>
        <mxCell id="_AU7bAO6rj__cAFepLXE-56" value="dead()" style="rounded=0;whiteSpace=wrap;html=1;" parent="1" vertex="1">
          <mxGeometry x="600" y="750" width="120" height="60" as="geometry" />
        </mxCell>
        <mxCell id="36jYQm2BVLt1s6zrFL8R-16" style="edgeStyle=orthogonalEdgeStyle;rounded=0;orthogonalLoop=1;jettySize=auto;html=1;entryX=0.5;entryY=0;entryDx=0;entryDy=0;" edge="1" parent="1" source="36jYQm2BVLt1s6zrFL8R-3" target="36jYQm2BVLt1s6zrFL8R-4">
          <mxGeometry relative="1" as="geometry" />
        </mxCell>
        <mxCell id="36jYQm2BVLt1s6zrFL8R-3" value="walks()" style="ellipse;whiteSpace=wrap;html=1;" vertex="1" parent="1">
          <mxGeometry x="1555" y="30" width="120" height="80" as="geometry" />
        </mxCell>
        <mxCell id="36jYQm2BVLt1s6zrFL8R-15" style="edgeStyle=orthogonalEdgeStyle;rounded=0;orthogonalLoop=1;jettySize=auto;html=1;entryX=0.5;entryY=0;entryDx=0;entryDy=0;" edge="1" parent="1" source="36jYQm2BVLt1s6zrFL8R-4" target="36jYQm2BVLt1s6zrFL8R-6">
          <mxGeometry relative="1" as="geometry" />
        </mxCell>
        <mxCell id="36jYQm2BVLt1s6zrFL8R-4" value="getsTired()" style="shape=parallelogram;perimeter=parallelogramPerimeter;whiteSpace=wrap;html=1;fixedSize=1;" vertex="1" parent="1">
          <mxGeometry x="1555" y="180" width="120" height="60" as="geometry" />
        </mxCell>
        <mxCell id="36jYQm2BVLt1s6zrFL8R-14" style="edgeStyle=orthogonalEdgeStyle;rounded=0;orthogonalLoop=1;jettySize=auto;html=1;entryX=0.5;entryY=0;entryDx=0;entryDy=0;" edge="1" parent="1" source="36jYQm2BVLt1s6zrFL8R-6" target="36jYQm2BVLt1s6zrFL8R-8">
          <mxGeometry relative="1" as="geometry" />
        </mxCell>
        <mxCell id="36jYQm2BVLt1s6zrFL8R-21" style="edgeStyle=orthogonalEdgeStyle;rounded=0;orthogonalLoop=1;jettySize=auto;html=1;entryX=0.5;entryY=0;entryDx=0;entryDy=0;" edge="1" parent="1" source="36jYQm2BVLt1s6zrFL8R-6" target="36jYQm2BVLt1s6zrFL8R-19">
          <mxGeometry relative="1" as="geometry" />
        </mxCell>
        <mxCell id="36jYQm2BVLt1s6zrFL8R-6" value="stopWalking()" style="rhombus;whiteSpace=wrap;html=1;" vertex="1" parent="1">
          <mxGeometry x="1552.5" y="300" width="125" height="80" as="geometry" />
        </mxCell>
        <mxCell id="36jYQm2BVLt1s6zrFL8R-13" style="edgeStyle=orthogonalEdgeStyle;rounded=0;orthogonalLoop=1;jettySize=auto;html=1;entryX=0.5;entryY=0;entryDx=0;entryDy=0;" edge="1" parent="1" source="36jYQm2BVLt1s6zrFL8R-8" target="36jYQm2BVLt1s6zrFL8R-9">
          <mxGeometry relative="1" as="geometry" />
        </mxCell>
        <mxCell id="36jYQm2BVLt1s6zrFL8R-8" value="life = life -10" style="shape=parallelogram;perimeter=parallelogramPerimeter;whiteSpace=wrap;html=1;fixedSize=1;" vertex="1" parent="1">
          <mxGeometry x="1415" y="460" width="120" height="60" as="geometry" />
        </mxCell>
        <mxCell id="36jYQm2BVLt1s6zrFL8R-12" style="edgeStyle=orthogonalEdgeStyle;rounded=0;orthogonalLoop=1;jettySize=auto;html=1;entryX=0.5;entryY=0;entryDx=0;entryDy=0;" edge="1" parent="1" source="36jYQm2BVLt1s6zrFL8R-9" target="36jYQm2BVLt1s6zrFL8R-10">
          <mxGeometry relative="1" as="geometry" />
        </mxCell>
        <mxCell id="36jYQm2BVLt1s6zrFL8R-9" value="life = 90" style="rounded=0;whiteSpace=wrap;html=1;" vertex="1" parent="1">
          <mxGeometry x="1415" y="600" width="120" height="50" as="geometry" />
        </mxCell>
        <mxCell id="36jYQm2BVLt1s6zrFL8R-11" style="edgeStyle=orthogonalEdgeStyle;rounded=0;orthogonalLoop=1;jettySize=auto;html=1;exitX=1;exitY=0.5;exitDx=0;exitDy=0;" edge="1" parent="1" source="36jYQm2BVLt1s6zrFL8R-10" target="36jYQm2BVLt1s6zrFL8R-8">
          <mxGeometry relative="1" as="geometry">
            <Array as="points">
              <mxPoint x="1590" y="770" />
              <mxPoint x="1590" y="490" />
            </Array>
          </mxGeometry>
        </mxCell>
        <mxCell id="36jYQm2BVLt1s6zrFL8R-18" style="edgeStyle=orthogonalEdgeStyle;rounded=0;orthogonalLoop=1;jettySize=auto;html=1;exitX=0;exitY=0.5;exitDx=0;exitDy=0;" edge="1" parent="1" source="36jYQm2BVLt1s6zrFL8R-10" target="36jYQm2BVLt1s6zrFL8R-17">
          <mxGeometry relative="1" as="geometry">
            <mxPoint x="1330" y="768" as="sourcePoint" />
            <mxPoint x="1455" y="859.9999999999998" as="targetPoint" />
            <Array as="points">
              <mxPoint x="1380" y="768" />
              <mxPoint x="1320" y="768" />
              <mxPoint x="1320" y="910" />
            </Array>
          </mxGeometry>
        </mxCell>
        <mxCell id="36jYQm2BVLt1s6zrFL8R-10" value="getsDead()" style="rhombus;whiteSpace=wrap;html=1;" vertex="1" parent="1">
          <mxGeometry x="1380" y="730" width="190" height="80" as="geometry" />
        </mxCell>
        <mxCell id="36jYQm2BVLt1s6zrFL8R-20" style="edgeStyle=orthogonalEdgeStyle;rounded=0;orthogonalLoop=1;jettySize=auto;html=1;entryX=0;entryY=0.5;entryDx=0;entryDy=0;" edge="1" parent="1" source="36jYQm2BVLt1s6zrFL8R-17" target="36jYQm2BVLt1s6zrFL8R-19">
          <mxGeometry relative="1" as="geometry" />
        </mxCell>
        <mxCell id="36jYQm2BVLt1s6zrFL8R-17" value="dead()" style="rounded=0;whiteSpace=wrap;html=1;" vertex="1" parent="1">
          <mxGeometry x="1415" y="870" width="120" height="60" as="geometry" />
        </mxCell>
        <mxCell id="36jYQm2BVLt1s6zrFL8R-19" value="end" style="ellipse;whiteSpace=wrap;html=1;" vertex="1" parent="1">
          <mxGeometry x="1740" y="860" width="120" height="80" as="geometry" />
        </mxCell>
        <mxCell id="36jYQm2BVLt1s6zrFL8R-22" value="true" style="text;html=1;align=center;verticalAlign=middle;whiteSpace=wrap;rounded=0;" vertex="1" parent="1">
          <mxGeometry x="1700" y="300" width="60" height="30" as="geometry" />
        </mxCell>
        <mxCell id="36jYQm2BVLt1s6zrFL8R-23" value="false" style="text;html=1;align=center;verticalAlign=middle;whiteSpace=wrap;rounded=0;" vertex="1" parent="1">
          <mxGeometry x="1495" y="310" width="60" height="30" as="geometry" />
        </mxCell>
        <mxCell id="36jYQm2BVLt1s6zrFL8R-26" value="true" style="text;html=1;align=center;verticalAlign=middle;whiteSpace=wrap;rounded=0;" vertex="1" parent="1">
          <mxGeometry x="1320" y="740" width="60" height="30" as="geometry" />
        </mxCell>
        <mxCell id="36jYQm2BVLt1s6zrFL8R-27" value="false" style="text;html=1;align=center;verticalAlign=middle;whiteSpace=wrap;rounded=0;" vertex="1" parent="1">
          <mxGeometry x="1585" y="645" width="60" height="30" as="geometry" />
        </mxCell>
      </root>
    </mxGraphModel>
  </diagram>
</mxfile>
